<mxfile host="app.diagrams.net" modified="2024-03-05T18:15:32.252Z" agent="Mozilla/5.0 (Windows NT 10.0; Win64; x64) AppleWebKit/537.36 (KHTML, like Gecko) Chrome/122.0.0.0 Safari/537.36" etag="rgXcpA5SLk3KpXc9gMW5" version="23.1.6" type="device">
  <diagram name="Page-1" id="qAk-8Aepy03UgNFXvfLe">
    <mxGraphModel dx="819" dy="422" grid="1" gridSize="10" guides="1" tooltips="1" connect="1" arrows="1" fold="1" page="1" pageScale="1" pageWidth="850" pageHeight="1100" math="0" shadow="0">
      <root>
        <mxCell id="0" />
        <mxCell id="1" parent="0" />
        <mxCell id="zkIy36QmkyHbao0x_XFE-1" value="General settings" style="rounded=1;whiteSpace=wrap;html=1;fillColor=#fff2cc;strokeColor=#d6b656;" parent="1" vertex="1">
          <mxGeometry x="190" y="145" width="110" height="60" as="geometry" />
        </mxCell>
        <mxCell id="zkIy36QmkyHbao0x_XFE-11" value="" style="group" parent="1" vertex="1" connectable="0">
          <mxGeometry x="490" y="20" width="130" height="30" as="geometry" />
        </mxCell>
        <mxCell id="zkIy36QmkyHbao0x_XFE-7" value="" style="group" parent="zkIy36QmkyHbao0x_XFE-11" vertex="1" connectable="0">
          <mxGeometry width="120" height="30" as="geometry" />
        </mxCell>
        <mxCell id="zkIy36QmkyHbao0x_XFE-3" value="" style="sketch=0;outlineConnect=0;fontColor=#232F3E;gradientColor=none;strokeColor=#ffffff;fillColor=#232F3E;dashed=0;verticalLabelPosition=middle;verticalAlign=bottom;align=center;html=1;whiteSpace=wrap;fontSize=10;fontStyle=1;spacing=3;shape=mxgraph.aws4.productIcon;prIcon=mxgraph.aws4.command_line_interface;" parent="zkIy36QmkyHbao0x_XFE-7" vertex="1">
          <mxGeometry width="30" height="30" as="geometry" />
        </mxCell>
        <mxCell id="zkIy36QmkyHbao0x_XFE-6" value="Command Line Interface" style="text;html=1;align=left;verticalAlign=middle;whiteSpace=wrap;rounded=0;" parent="zkIy36QmkyHbao0x_XFE-11" vertex="1">
          <mxGeometry x="30" width="100" height="30" as="geometry" />
        </mxCell>
        <mxCell id="zkIy36QmkyHbao0x_XFE-12" value="" style="group" parent="1" vertex="1" connectable="0">
          <mxGeometry x="25.9" y="160" width="128.2" height="30" as="geometry" />
        </mxCell>
        <mxCell id="zkIy36QmkyHbao0x_XFE-5" value="" style="sketch=0;aspect=fixed;pointerEvents=1;shadow=0;dashed=0;html=1;strokeColor=none;labelPosition=center;verticalLabelPosition=bottom;verticalAlign=top;align=center;fillColor=#000000;shape=mxgraph.azure.code_file" parent="zkIy36QmkyHbao0x_XFE-12" vertex="1">
          <mxGeometry width="28.2" height="30" as="geometry" />
        </mxCell>
        <mxCell id="zkIy36QmkyHbao0x_XFE-8" value="Default scenario&lt;br&gt;JSON file" style="text;html=1;align=left;verticalAlign=middle;whiteSpace=wrap;rounded=0;" parent="zkIy36QmkyHbao0x_XFE-12" vertex="1">
          <mxGeometry x="28.200000000000003" width="100" height="30" as="geometry" />
        </mxCell>
        <mxCell id="zkIy36QmkyHbao0x_XFE-13" value="" style="endArrow=classic;html=1;rounded=0;exitX=1;exitY=0.5;exitDx=0;exitDy=0;entryX=0;entryY=0.5;entryDx=0;entryDy=0;" parent="1" source="zkIy36QmkyHbao0x_XFE-8" target="zkIy36QmkyHbao0x_XFE-1" edge="1">
          <mxGeometry width="50" height="50" relative="1" as="geometry">
            <mxPoint x="200" y="190" as="sourcePoint" />
            <mxPoint x="250" y="140" as="targetPoint" />
          </mxGeometry>
        </mxCell>
        <mxCell id="zkIy36QmkyHbao0x_XFE-15" value="Virtual cohort settings" style="rounded=1;whiteSpace=wrap;html=1;fillColor=#fff2cc;strokeColor=#d6b656;" parent="1" vertex="1">
          <mxGeometry x="390" y="145" width="110" height="60" as="geometry" />
        </mxCell>
        <mxCell id="zkIy36QmkyHbao0x_XFE-16" value="Scenario&lt;br&gt;instance" style="text;html=1;align=center;verticalAlign=middle;whiteSpace=wrap;rounded=0;" parent="1" vertex="1">
          <mxGeometry x="310" y="145" width="60" height="30" as="geometry" />
        </mxCell>
        <mxCell id="zkIy36QmkyHbao0x_XFE-17" value="" style="endArrow=classic;html=1;rounded=0;entryX=0;entryY=0.5;entryDx=0;entryDy=0;exitX=1;exitY=0.5;exitDx=0;exitDy=0;" parent="1" source="zkIy36QmkyHbao0x_XFE-1" target="zkIy36QmkyHbao0x_XFE-15" edge="1">
          <mxGeometry width="50" height="50" relative="1" as="geometry">
            <mxPoint x="280" y="220" as="sourcePoint" />
            <mxPoint x="200" y="185" as="targetPoint" />
          </mxGeometry>
        </mxCell>
        <mxCell id="zkIy36QmkyHbao0x_XFE-18" value="Input settings" style="rounded=1;whiteSpace=wrap;html=1;fillColor=#fff2cc;strokeColor=#d6b656;" parent="1" vertex="1">
          <mxGeometry x="590" y="145" width="110" height="60" as="geometry" />
        </mxCell>
        <mxCell id="zkIy36QmkyHbao0x_XFE-19" value="Scenario&lt;br&gt;instance" style="text;html=1;align=center;verticalAlign=middle;whiteSpace=wrap;rounded=0;" parent="1" vertex="1">
          <mxGeometry x="510" y="145" width="60" height="30" as="geometry" />
        </mxCell>
        <mxCell id="zkIy36QmkyHbao0x_XFE-20" value="" style="endArrow=classic;html=1;rounded=0;entryX=0;entryY=0.5;entryDx=0;entryDy=0;exitX=1;exitY=0.5;exitDx=0;exitDy=0;" parent="1" target="zkIy36QmkyHbao0x_XFE-18" edge="1">
          <mxGeometry width="50" height="50" relative="1" as="geometry">
            <mxPoint x="500" y="175" as="sourcePoint" />
            <mxPoint x="400" y="185" as="targetPoint" />
          </mxGeometry>
        </mxCell>
        <mxCell id="zkIy36QmkyHbao0x_XFE-21" value="" style="endArrow=classic;html=1;rounded=0;exitX=0.25;exitY=1;exitDx=0;exitDy=0;entryX=0.5;entryY=0;entryDx=0;entryDy=0;" parent="1" source="zkIy36QmkyHbao0x_XFE-6" target="zkIy36QmkyHbao0x_XFE-1" edge="1">
          <mxGeometry width="50" height="50" relative="1" as="geometry">
            <mxPoint x="580" y="160" as="sourcePoint" />
            <mxPoint x="630" y="110" as="targetPoint" />
            <Array as="points">
              <mxPoint x="545" y="90" />
              <mxPoint x="245" y="90" />
            </Array>
          </mxGeometry>
        </mxCell>
        <mxCell id="zkIy36QmkyHbao0x_XFE-22" value="" style="endArrow=classic;html=1;rounded=0;exitX=0.25;exitY=1;exitDx=0;exitDy=0;entryX=0.5;entryY=0;entryDx=0;entryDy=0;" parent="1" source="zkIy36QmkyHbao0x_XFE-6" target="zkIy36QmkyHbao0x_XFE-15" edge="1">
          <mxGeometry width="50" height="50" relative="1" as="geometry">
            <mxPoint x="495" y="60" as="sourcePoint" />
            <mxPoint x="255" y="155" as="targetPoint" />
            <Array as="points">
              <mxPoint x="545" y="90" />
              <mxPoint x="445" y="90" />
            </Array>
          </mxGeometry>
        </mxCell>
        <mxCell id="zkIy36QmkyHbao0x_XFE-23" value="" style="endArrow=classic;html=1;rounded=0;exitX=0.25;exitY=1;exitDx=0;exitDy=0;entryX=0.5;entryY=0;entryDx=0;entryDy=0;" parent="1" source="zkIy36QmkyHbao0x_XFE-6" target="zkIy36QmkyHbao0x_XFE-18" edge="1">
          <mxGeometry width="50" height="50" relative="1" as="geometry">
            <mxPoint x="495" y="60" as="sourcePoint" />
            <mxPoint x="455" y="155" as="targetPoint" />
            <Array as="points">
              <mxPoint x="545" y="90" />
              <mxPoint x="645" y="90" />
            </Array>
          </mxGeometry>
        </mxCell>
        <mxCell id="zkIy36QmkyHbao0x_XFE-24" value="Simulator" style="rounded=1;whiteSpace=wrap;html=1;fillColor=#dae8fc;strokeColor=#6c8ebf;" parent="1" vertex="1">
          <mxGeometry x="790" y="145" width="110" height="60" as="geometry" />
        </mxCell>
        <mxCell id="zkIy36QmkyHbao0x_XFE-25" value="Scenario&lt;br&gt;instance" style="text;html=1;align=center;verticalAlign=middle;whiteSpace=wrap;rounded=0;" parent="1" vertex="1">
          <mxGeometry x="710" y="145" width="60" height="30" as="geometry" />
        </mxCell>
        <mxCell id="zkIy36QmkyHbao0x_XFE-26" value="" style="endArrow=classic;html=1;rounded=0;entryX=0;entryY=0.5;entryDx=0;entryDy=0;exitX=1;exitY=0.5;exitDx=0;exitDy=0;" parent="1" target="zkIy36QmkyHbao0x_XFE-24" edge="1">
          <mxGeometry width="50" height="50" relative="1" as="geometry">
            <mxPoint x="700" y="175" as="sourcePoint" />
            <mxPoint x="600" y="185" as="targetPoint" />
          </mxGeometry>
        </mxCell>
        <mxCell id="zkIy36QmkyHbao0x_XFE-27" value="" style="endArrow=classic;html=1;rounded=0;exitX=0.25;exitY=1;exitDx=0;exitDy=0;entryX=0.5;entryY=0;entryDx=0;entryDy=0;" parent="1" source="zkIy36QmkyHbao0x_XFE-6" target="zkIy36QmkyHbao0x_XFE-24" edge="1">
          <mxGeometry width="50" height="50" relative="1" as="geometry">
            <mxPoint x="495" y="60" as="sourcePoint" />
            <mxPoint x="655" y="155" as="targetPoint" />
            <Array as="points">
              <mxPoint x="545" y="90" />
              <mxPoint x="845" y="90" />
            </Array>
          </mxGeometry>
        </mxCell>
        <mxCell id="zkIy36QmkyHbao0x_XFE-28" value="" style="group" parent="1" vertex="1" connectable="0">
          <mxGeometry x="190" y="260" width="128.2" height="30" as="geometry" />
        </mxCell>
        <mxCell id="zkIy36QmkyHbao0x_XFE-29" value="" style="sketch=0;aspect=fixed;pointerEvents=1;shadow=0;dashed=0;html=1;strokeColor=none;labelPosition=center;verticalLabelPosition=bottom;verticalAlign=top;align=center;fillColor=#000000;shape=mxgraph.azure.code_file" parent="zkIy36QmkyHbao0x_XFE-28" vertex="1">
          <mxGeometry width="28.2" height="30" as="geometry" />
        </mxCell>
        <mxCell id="zkIy36QmkyHbao0x_XFE-30" value="Updated scenario&lt;br&gt;JSON file" style="text;html=1;align=left;verticalAlign=middle;whiteSpace=wrap;rounded=0;" parent="zkIy36QmkyHbao0x_XFE-28" vertex="1">
          <mxGeometry x="28.200000000000003" width="100" height="30" as="geometry" />
        </mxCell>
        <mxCell id="zkIy36QmkyHbao0x_XFE-31" value="" style="edgeStyle=orthogonalEdgeStyle;rounded=0;orthogonalLoop=1;jettySize=auto;html=1;" parent="1" source="zkIy36QmkyHbao0x_XFE-8" target="zkIy36QmkyHbao0x_XFE-1" edge="1">
          <mxGeometry relative="1" as="geometry" />
        </mxCell>
        <mxCell id="zkIy36QmkyHbao0x_XFE-33" value="" style="endArrow=classic;html=1;rounded=0;exitX=0.5;exitY=1;exitDx=0;exitDy=0;entryX=0.263;entryY=-0.054;entryDx=0;entryDy=0;entryPerimeter=0;" parent="1" source="zkIy36QmkyHbao0x_XFE-1" target="zkIy36QmkyHbao0x_XFE-30" edge="1">
          <mxGeometry width="50" height="50" relative="1" as="geometry">
            <mxPoint x="470" y="160" as="sourcePoint" />
            <mxPoint x="520" y="110" as="targetPoint" />
          </mxGeometry>
        </mxCell>
        <mxCell id="zkIy36QmkyHbao0x_XFE-34" value="" style="group" parent="1" vertex="1" connectable="0">
          <mxGeometry x="390" y="265" width="128.2" height="30" as="geometry" />
        </mxCell>
        <mxCell id="zkIy36QmkyHbao0x_XFE-35" value="" style="sketch=0;aspect=fixed;pointerEvents=1;shadow=0;dashed=0;html=1;strokeColor=none;labelPosition=center;verticalLabelPosition=bottom;verticalAlign=top;align=center;fillColor=#000000;shape=mxgraph.azure.code_file" parent="zkIy36QmkyHbao0x_XFE-34" vertex="1">
          <mxGeometry width="28.2" height="30" as="geometry" />
        </mxCell>
        <mxCell id="zkIy36QmkyHbao0x_XFE-36" value="Updated scenario&lt;br&gt;JSON file" style="text;html=1;align=left;verticalAlign=middle;whiteSpace=wrap;rounded=0;" parent="zkIy36QmkyHbao0x_XFE-34" vertex="1">
          <mxGeometry x="28.200000000000003" width="100" height="30" as="geometry" />
        </mxCell>
        <mxCell id="zkIy36QmkyHbao0x_XFE-37" value="" style="endArrow=classic;html=1;rounded=0;exitX=0.5;exitY=1;exitDx=0;exitDy=0;entryX=0.263;entryY=-0.054;entryDx=0;entryDy=0;entryPerimeter=0;" parent="1" source="zkIy36QmkyHbao0x_XFE-15" target="zkIy36QmkyHbao0x_XFE-36" edge="1">
          <mxGeometry width="50" height="50" relative="1" as="geometry">
            <mxPoint x="445" y="210" as="sourcePoint" />
            <mxPoint x="720" y="115" as="targetPoint" />
          </mxGeometry>
        </mxCell>
        <mxCell id="zkIy36QmkyHbao0x_XFE-38" value="" style="group" parent="1" vertex="1" connectable="0">
          <mxGeometry x="590" y="265" width="128.2" height="30" as="geometry" />
        </mxCell>
        <mxCell id="zkIy36QmkyHbao0x_XFE-39" value="" style="sketch=0;aspect=fixed;pointerEvents=1;shadow=0;dashed=0;html=1;strokeColor=none;labelPosition=center;verticalLabelPosition=bottom;verticalAlign=top;align=center;fillColor=#000000;shape=mxgraph.azure.code_file" parent="zkIy36QmkyHbao0x_XFE-38" vertex="1">
          <mxGeometry width="28.2" height="30" as="geometry" />
        </mxCell>
        <mxCell id="zkIy36QmkyHbao0x_XFE-40" value="Updated scenario&lt;br&gt;JSON file" style="text;html=1;align=left;verticalAlign=middle;whiteSpace=wrap;rounded=0;" parent="zkIy36QmkyHbao0x_XFE-38" vertex="1">
          <mxGeometry x="28.200000000000003" width="100" height="30" as="geometry" />
        </mxCell>
        <mxCell id="zkIy36QmkyHbao0x_XFE-41" value="" style="endArrow=classic;html=1;rounded=0;entryX=0.263;entryY=-0.054;entryDx=0;entryDy=0;entryPerimeter=0;exitX=0.5;exitY=1;exitDx=0;exitDy=0;" parent="1" source="zkIy36QmkyHbao0x_XFE-18" target="zkIy36QmkyHbao0x_XFE-40" edge="1">
          <mxGeometry width="50" height="50" relative="1" as="geometry">
            <mxPoint x="645" y="210" as="sourcePoint" />
            <mxPoint x="920" y="105" as="targetPoint" />
          </mxGeometry>
        </mxCell>
        <mxCell id="zkIy36QmkyHbao0x_XFE-44" value="" style="group" parent="1" vertex="1" connectable="0">
          <mxGeometry x="790" y="265" width="128.2" height="30" as="geometry" />
        </mxCell>
        <mxCell id="zkIy36QmkyHbao0x_XFE-46" value="Simulation results" style="text;html=1;align=left;verticalAlign=middle;whiteSpace=wrap;rounded=0;" parent="zkIy36QmkyHbao0x_XFE-44" vertex="1">
          <mxGeometry x="28.200000000000003" width="100" height="30" as="geometry" />
        </mxCell>
        <mxCell id="zkIy36QmkyHbao0x_XFE-47" value="" style="endArrow=classic;html=1;rounded=0;exitX=0.5;exitY=1;exitDx=0;exitDy=0;entryX=0.263;entryY=-0.054;entryDx=0;entryDy=0;entryPerimeter=0;" parent="1" source="zkIy36QmkyHbao0x_XFE-24" target="zkIy36QmkyHbao0x_XFE-46" edge="1">
          <mxGeometry width="50" height="50" relative="1" as="geometry">
            <mxPoint x="845" y="210" as="sourcePoint" />
            <mxPoint x="1120" y="115" as="targetPoint" />
          </mxGeometry>
        </mxCell>
        <mxCell id="QvBSNq4rjvGd8C2r0v7W-1" value="&amp;gt;&amp;gt; settings" style="text;html=1;align=center;verticalAlign=middle;whiteSpace=wrap;rounded=0;fillColor=#000000;fontColor=#FFFFFF;" vertex="1" parent="1">
          <mxGeometry x="245" y="100" width="70" height="20" as="geometry" />
        </mxCell>
        <mxCell id="QvBSNq4rjvGd8C2r0v7W-2" value="&amp;gt;&amp;gt; cohort" style="text;html=1;align=center;verticalAlign=middle;whiteSpace=wrap;rounded=0;fillColor=#000000;fontColor=#FFFFFF;" vertex="1" parent="1">
          <mxGeometry x="445" y="100" width="62" height="20" as="geometry" />
        </mxCell>
        <mxCell id="QvBSNq4rjvGd8C2r0v7W-3" value="&amp;gt;&amp;gt; inputs" style="text;html=1;align=center;verticalAlign=middle;whiteSpace=wrap;rounded=0;fillColor=#000000;fontColor=#FFFFFF;" vertex="1" parent="1">
          <mxGeometry x="645" y="100" width="62" height="20" as="geometry" />
        </mxCell>
        <mxCell id="QvBSNq4rjvGd8C2r0v7W-4" value="&amp;gt;&amp;gt; simulate" style="text;html=1;align=center;verticalAlign=middle;whiteSpace=wrap;rounded=0;fillColor=#000000;fontColor=#FFFFFF;" vertex="1" parent="1">
          <mxGeometry x="845" y="100" width="75" height="20" as="geometry" />
        </mxCell>
        <mxCell id="QvBSNq4rjvGd8C2r0v7W-5" value="Plotting" style="rounded=1;whiteSpace=wrap;html=1;fillColor=#dae8fc;strokeColor=#6c8ebf;" vertex="1" parent="1">
          <mxGeometry x="969" y="145" width="110" height="60" as="geometry" />
        </mxCell>
        <mxCell id="QvBSNq4rjvGd8C2r0v7W-6" value="" style="endArrow=classic;html=1;rounded=0;exitX=0.25;exitY=1;exitDx=0;exitDy=0;entryX=0.553;entryY=0.011;entryDx=0;entryDy=0;entryPerimeter=0;" edge="1" parent="1" source="zkIy36QmkyHbao0x_XFE-6" target="QvBSNq4rjvGd8C2r0v7W-5">
          <mxGeometry width="50" height="50" relative="1" as="geometry">
            <mxPoint x="555" y="60" as="sourcePoint" />
            <mxPoint x="855" y="155" as="targetPoint" />
            <Array as="points">
              <mxPoint x="545" y="90" />
              <mxPoint x="1030" y="90" />
            </Array>
          </mxGeometry>
        </mxCell>
        <mxCell id="QvBSNq4rjvGd8C2r0v7W-7" value="&amp;gt;&amp;gt; plot" style="text;html=1;align=center;verticalAlign=middle;whiteSpace=wrap;rounded=0;fillColor=#000000;fontColor=#FFFFFF;" vertex="1" parent="1">
          <mxGeometry x="1030" y="100" width="50" height="20" as="geometry" />
        </mxCell>
        <mxCell id="QvBSNq4rjvGd8C2r0v7W-8" value="" style="endArrow=classic;html=1;rounded=0;exitX=1;exitY=0.5;exitDx=0;exitDy=0;entryX=0;entryY=0.5;entryDx=0;entryDy=0;" edge="1" parent="1" source="zkIy36QmkyHbao0x_XFE-46" target="QvBSNq4rjvGd8C2r0v7W-5">
          <mxGeometry width="50" height="50" relative="1" as="geometry">
            <mxPoint x="855" y="215" as="sourcePoint" />
            <mxPoint x="855" y="273" as="targetPoint" />
            <Array as="points">
              <mxPoint x="930" y="280" />
              <mxPoint x="930" y="175" />
            </Array>
          </mxGeometry>
        </mxCell>
        <mxCell id="QvBSNq4rjvGd8C2r0v7W-9" value="" style="endArrow=classic;html=1;rounded=0;exitX=0.5;exitY=1;exitDx=0;exitDy=0;entryX=0.263;entryY=-0.054;entryDx=0;entryDy=0;entryPerimeter=0;" edge="1" parent="1">
          <mxGeometry width="50" height="50" relative="1" as="geometry">
            <mxPoint x="1023.58" y="205" as="sourcePoint" />
            <mxPoint x="1023.58" y="263" as="targetPoint" />
          </mxGeometry>
        </mxCell>
        <mxCell id="QvBSNq4rjvGd8C2r0v7W-10" value="" style="sketch=0;outlineConnect=0;fillColor=#FF9305;strokeColor=#d79b00;dashed=0;verticalLabelPosition=bottom;verticalAlign=top;align=center;html=1;fontSize=12;fontStyle=0;aspect=fixed;pointerEvents=1;shape=mxgraph.aws4.container_registry_image;strokeWidth=4;shadow=0;fillStyle=solid;" vertex="1" parent="1">
          <mxGeometry x="980" y="265" width="30" height="30" as="geometry" />
        </mxCell>
        <mxCell id="QvBSNq4rjvGd8C2r0v7W-14" value="Figures" style="text;html=1;align=center;verticalAlign=middle;whiteSpace=wrap;rounded=0;" vertex="1" parent="1">
          <mxGeometry x="1003" y="265" width="60" height="30" as="geometry" />
        </mxCell>
        <mxCell id="zkIy36QmkyHbao0x_XFE-45" value="" style="sketch=0;aspect=fixed;pointerEvents=1;shadow=0;dashed=0;html=1;strokeColor=none;labelPosition=center;verticalLabelPosition=bottom;verticalAlign=top;align=center;fillColor=#000000;shape=mxgraph.azure.code_file" parent="1" vertex="1">
          <mxGeometry x="790" y="250" width="28.2" height="30" as="geometry" />
        </mxCell>
        <mxCell id="QvBSNq4rjvGd8C2r0v7W-15" value="" style="shape=image;html=1;verticalAlign=top;verticalLabelPosition=bottom;labelBackgroundColor=#ffffff;imageAspect=0;aspect=fixed;image=https://cdn0.iconfinder.com/data/icons/octicons/1024/file-binary-128.png" vertex="1" parent="1">
          <mxGeometry x="790" y="280" width="30" height="30" as="geometry" />
        </mxCell>
      </root>
    </mxGraphModel>
  </diagram>
</mxfile>
